# xmcd
# 
# Track frame offsets:
#     150
#     2864
#     25864
#     49445
# 
# Disc length: 1454
# 
# Revision: 0
# Processed by: cddbd v1.5.2PL0 Copyright (c) Steve Scherf et al.
# Submitted via: fre:ac v1.0.17
# 
DISCID=2c05ac04
DTITLE=РыбийЖыр - Гордость [single]
DYEAR=2008
DGENRE=Rapcore
TTITLE0=Radio Search
TTITLE1=Гордость
TTITLE2=Secret Track
TTITLE3=Data track
EXTD=
EXTT0=
EXTT1=
EXTT2=
EXTT3=
PLAYORDER=
